<?xml version="1.0" encoding="UTF-8"?>
<svg id="Layer_2" data-name="Layer 2" xmlns="http://www.w3.org/2000/svg" viewBox="0 0 275.77 99.44" fill="#0000FF">
  <g id="Layer_1-2" data-name="Layer 1">
    <g>
      <path d="M3.11,48.43c-1.2-.8-1.27-1.15.1-1.08.61.09,1.36.09,1.54-.25l.67-1.22c.69,1.58,2.14,2.26,3.13,1.93,4.08-1.35.9-4.45,1.97-7.98l16.34-10.91,6.7-4.95c1.47-1.09,2.47-2.64,4.34-3.3,3.1-1.1,5.26-3.41,7.8-5.29,1.66-1.23,3.56-1.79,4.98-3.47,1.24-1.46,3.29-2.32,5.08-2.03,1.33.21,4.06,1.09,3.98,3.29-.05,1.41-1.47,4.15-2.48,5.19-2.53,2.6-3.98,5.08-5.63,8.19-1.05,1.98-7.22,11.05-3.8,13.56,2.58-2.9,11.88-7.98,13.22-10.45,2.52-4.67,6.26-7.14,9.96-10.17,2.1-1.73,12.69-13.21,16.7-9.75,2.83,2.44-4.17,16-1.87,17.52,1.18.78,2.89-1.79,4.03-2.05,4.38-.98,6.9-4.02,10.33-6.43,2.53-1.78,5.19-2.63,6.47-5.84s7.73-2.06,8.06-.87c.24.87-.12,1.72-1.18,2.56,4.08.17,1.24,9.57,1.11,9.76-.78,1.19-1.55,4,.23,4.33l11.42-6.69c1.83-1.07,3.32-2.25,5.06-3.22,3-1.67,6.62-2.02,9.54-3.94,1.86-1.23,3.52-.25,5.29.39,2.58.94,7.63-1.4,10.26,2.99s-2.86,7.27-3.11,10.61c-.1,1.4,2.24,1.87,2.63,3.04,1.01,3.04,2.45,6.78,3.84,9.63.21.43-.06,2.45.74,1.94,3.44-2.19,6.55-1.89,10.28-1.98,2.22-.05,3.4-3.44,4.68-4.75l4.7-4.8c2.11-2.15.7-3.64-.5-5.47-2.45-3.72-5.09-7.43-9.06-9.63-.28.93-.36,1.52-.59,1.97-.34.65-4.38,1.32-5.7-2.42-.79-2.26-1.53-4.66.1-6.4,1.44-1.53,3.22-3.56,5.78-2.82,1.69.49,3.69.56,5.16,1.46,3.14,1.92,6.29,3.73,9.13,6.12s4.53,6.04,7.77,7.69c3.59-2.03,5.59-5.93,8.94-7.61,1.94-.97,3.07-1.08,4.2-3.23.71-1.35,1.54-2.29,2.02-4.07.73-2.74,6.04-4.05,7.92-1.46,2.15,2.97-.04,7.72-3.07,9.09-1.92.87-3.68.56-5.64,1.26.91,1.77.12,3.52-1.57,4.61-1.19.76-9.48,7.36-6.87,9.25,6.15,4.48,12.07,8.96,16.65,15.23.65.89.83,3.28-.28,3.99-1.23.79-3.85.79-5.06,0l-4.63-2.96c-2.56-1.64-4.63-3.28-7.34-4.95s-6.26-5.78-9.99-5.33c-4.81.58-6,10.08-16.05,13.38-.91.3-2.01-1.07-2.88-.63-3.45,1.74-7.3,3.44-11.2,2.25-5.78-1.75-5.15-11.01-7.78-13.93-1.55-1.72-4.99.46-6.57,1.19-1.34-.23-1.88.1-.56.85-2.37,2.48-4.91,4.59-8.29,6.42-2.1,1.14-5.1,4.08-7.73,2.24-1.51-1.06-1.57-5.45-.78-7.17,1.52-3.31,5.24-4.73,8.01-5.92.45,1.13,1.02,1.29,1.44.66-1.22-2.47,1.32-1.51,5.85-7.33,1.37-1.76,3.65-2.92,2.95-6.07-2.23,1.66-4.13,2.38-6.64,2.41-1.12.02-1.6,1.69-2.47,1.98-4.63,1.53-8.45,3.94-12.42,6.71-12.22,8.53-4.11,6.41-13.27,14.22-8.51-7.6-2.72-11.11-4.04-18.35-.58-.2-1.1.58-1.85.08,1.46-1.18,3.23-2.48,2.88-4.57-.39-.52-1.65.16-2.38.39-.79.25-.59,1.41-.81,2.26-1.65.38-2.95,1.59-4.37,2.46l-5.95,3.62-6.39,3.29c-2.49,1.28-6.33,3.28-8.9,1.57-3.98-2.66-.13-11.3-2.08-13.02l-16.48,15.22c-2.97,2.74-11.37,11.12-15.82,9.52-1.07-.38-2.96-1.96-3.53-3.07-4.4-8.62,3.19-15.52,2.24-16.71-1.53-1.9-6.54,2.9-8.22,4.05l-20.04,13.69c-1.67,1.14-12.45,7.35-13.45,2.91-.29-1.29,2.12-2.25,3.08-2.4Z"/>
      <g>
        <path d="M176.65,96.67c-3.6-1.97-4.39-4.29-5.15-7.67-.68-2.99-2.9-5.56-2.92-8.89-.02-2.25-.2-4.41-1.01-6.68-2.49,2.54-4.78,5.03-6.63,7.83-.43,1.93,1.06,4.44.25,6.44-.41,1.01-1.76,3.32-2.93,3.27-2.66-.11-5.99-.43-7.69-2.16l-3.17-3.21-2.46-3.82c-2.55.08-3.75,2.46-5.46,3.69-3.88,2.77-7.88,5.17-11.54,8.4-.94.83-9.15,5.02-10.56-.1-1.16-4.2.35-7.42,3.57-9.74,2.93-2.11,5.74-4.39,8.6-6.78,2.81-2.35,5.12-4.97,8.38-6.93,1.69-1.02,2.6-2.94,4.68-3.45-1.75.03-2.13-1.79-3.3-2.18-7.99-2.67-14.63,4.7-16.75,5.65-2.91,1.3-5.36,3.56-7.08,6.29-1.39,2.21-3.4,4.37-4.11,6.84-.65,2.24-.89,3.87-3.25,5.02-6.71,3.27-7.54-10.57-6.88-13.87.28-1.4,2.36-2.74,1.08-4.6-3.03.47-4.58,2.94-6.69,4.43-7.14,5.04-16.82,13.56-23.64,16.41-2.24.94-4.05-2.4-4.39-4.09-.55-2.76.03-4.88-.34-7.68-5.83,4.69-20.79,24.16-27.5,19.72-1.39-.92-1.57-2.56-2.07-4.36-.88-3.19-.15-5.22,1.06-8.08,1.47-3.46,3.01-6.65,4.91-9.96-.29.51,4.45-10.06,4.47-10.5-9.9,6.01-17.63,11.19-25.68,18.33-.69.61-2.41,1.45-3.02,1.01-.87-.63-2.78-.47-2.59-2.29-3.88.74.44,7.51-4.66,9.14-1,.32-2.1-.24-2.66-.69-.84-.68-.54-2.13-.46-3.16.17-2.38,1.32-2.96,3.21-3.93,1.3-.66,2.21-2.94,3.96-2.65,3.37.56,1.93-1.02,6.67-5.47l10.58-9.93c2.73-2.56,6.51-3.91,9.23-6.62,1.99-1.98,4.4-3.07,6.62-4.72,2.44-1.81,5.13-3.9,8.34-3.66,2.4.18,2.8,1.95,2.85,3.71.07,2.3-1.11,3.04-1.99,4.71l-6.69,12.58c-1.86,3.5-3.59,6.41-4.09,10.39.26-2.09-2.99,7.66-2.2,7.03,1.98-.25,2.75-2.3,4.18-3.07,3.19-1.71,4.84-4.41,7.23-6.91,1.79-1.87,4.17-3.21,6.13-4.92,1.44-1.25,8.16-8.31,9.84-10.2s3.62-4.45,6.22-4.37c1.99.06,2.11,3.28,1.32,4.65-1.56,2.69-1.58,5.62-2.97,8.13l-2.79,5.05c-.25.46.1,1.08-.09,1.42-.26.45.43,1.35,1.21.91,3.84-2.14,7-5.47,11.07-7.08,5.07-2,.88-1.02,7.08-5.86,2.89-2.26,6.12-3.65,8.76-6.18,2.34-2.24,5.17-3.68,7.25-6.28.89-1.11,3.22-2.64,3.97-1.09,3.41,7.06-2.97,11.04-2.09,16.11,2.98-.93,4.92-3.22,7.29-5.28,2.09-1.82,4.56-3.05,6.28-5.45s4.55-3.3,7.11-2.02l-.85,1.58c2.78.03,4.94-1.06,7.29-1.35,4.78-.59,9.11,2.1,12.58,4.88-.16,2.14.78,3.6.52,5.43-.24,1.69-1.8,7,.22,8.09.71.39,1.84.16,2.31-.6,1.59-2.57,4.17-3.69,6.28-5.55,2.7-2.39,4.89-5.17,7.9-7.28,2.72-1.91,9.02-10.04,12.13-9.19.68.19,1.19,1.85.72,2.46-1.49,1.98-.64,4.38-1.41,6.29-1.63,4.06-4.82,7.78-4.43,12.85,2.76-.71,4.27-3.56,6.62-4.58,1.59-.69,2.15-1.68,3.32-2.81,1.7-1.64,4.14-2.61,6.21-3.75,1.37-.75,2.89.5,4.07.45,3.32-.15,5.75,2.47,5.82,2.98.2,1.44-2.15,5.8-5.99,4.86-1.95-.48-4.78-.43-6.3,1.25-5.05,5.58-8.43,7.99-7.19,13.75.53,2.45,3.07,2.85,4.4,4.33s0,3.53-.6,4.63c-1.06,1.93-2.8,1.77-4.68,2.15-1.99.41-3.22-.58-4.8-1.45ZM134.14,86.39c-1.82-.39-2.36-.67-1.03-1.07,1.12.42,2.36.36,2.56-.3l.48-1.61c.54-1.82,2.55-3.04,2.26-5.35l-6.88,4.31c-2.22,1.39-4.72,2.34-5.87,5.32,5.53-2.66,3.39,2.35,8.49-1.31Z"/>
        <path d="M270.62,92.99c-7.93,2.64-28.29,4.37-33.93-2.29-1.19-1.41-2.77-2.29-3.06-4.55-.13-.99-.96-1.95-1.55-2.41-2.72-2.11-8.6,3.63-12.99.33-1.64-1.23-3.06-4.92-2.82-6.76,1.31-2.49,5.85-2,7.56-.64-.65.73-.86,1.31-.92,1.72-.15.92,1.34,1.31,1.62.46s-.09-1.65,0-2.43c.02-.18,7.52-4.37,8.5-5.45,1.24-3.64,3.85-6.11,5.65-9.4,2.82-5.16,8.56-9.28,14.69-7.06,1.03.37,2.81,1.86,3.55,2.73,2.81,3.29-3.63,8.62-5.98,10.64l-6.33,5.45c-1.02.87-2.16,3.54-2.34,5.05-.39,3.37,2.9,6.23,5.95,7.36,3.73,1.38,7.75,1.8,11.81,2.37,3.88.55,15.62-.87,15.77,1.21-.42,2.57-3.26,3.03-5.16,3.66Z"/>
        <path d="M213.61,81.93c.53,1.88-2.11,8.07-6.54,8.29-1.08.05-2.6-1.01-3.26-2.54-1.44-3.36-.31-7.3.04-11.01s.25-7.46,1.93-10.91c.86-1.79.14-2.81-.06-4.48-.23-1.95,3.43-3.5,5.16-2.99,1.71.5,1.31,2.32,1.36,3.67.05,1.21-.98,1.87-2.28,2.57,6.11,1.84.55,6.48,3.65,17.41Z"/>
      </g>
      <path d="M245.43,30.01c-6.48,6.38-3.68,14.91-11.63,21.21l3.72-18.77c-3.24-3.37-18.2,6.35-21.12.46-.72-1.45,1.15-3.66,2.14-4.57,1.33-1.22,2.83.89,4.38.51,5.5-1.36,10.26-3.1,16.2-3.26,1.67-5.72,4.24-11.09,5.05-16.28.48-3.03-.44-6.02,2.66-9.3,6.41,2.75,6.96,8.64,2.84,14.67-2.02,2.96-1.57,6.24-4.24,9.4,5.18-.33,30.09-4.2,26.85,3.48-.62,1.46-2.37,2.86-3.61,3.24-1.92.59-3.47-.61-4.92-1.06-4.37-1.38-11.88.46-18.32.29Z"/>
    </g>
  </g>
</svg>